#!OML:ASF I:\Actors\actors\Patient Classification 2\Patient 1\Session 1\actor1.ASF
:FULLY-SPECIFIED
:DEGREES
544
root -0.164096 18.7864 4.40506 15.8266 17.8329 0.970665
lowerback 30.7812 3.9405 7.71964
upperback 7.72491 7.77679 3.75316
thorax -7.55197 3.6224 -2.9519
lowerneck -8.83473 -14.3564 -14.2151
upperneck 18.1076 -20.5477 15.9861
head 10.4591 -9.16901 5.01057
rclavicle 3.18055e-015 -5.88403e-014
rhumerus -9.70085 17.4097 -78.0254
rradius 96.7475
rwrist -16.7032
rhand -13.3812 299.195
rfingers 7.12502
rthumb 12.7258 90.3977
lclavicle 3.18055e-015 -5.88403e-014
lhumerus -8.56065 -47.0427 70.0665
lradius 109.35
lwrist 54.5891
lhand -18.631 0.212634
lfingers 7.12502
lthumb 7.6613 30.0539
rfemur -9.50191 -10.0589 12.7195
rtibia 2.8625e-014
rfoot -17.1027 -19.2523
rtoes -3.66124
lfemur -32.4138 -6.57808 -14.1557
ltibia 28.0142
lfoot -11.1739 -0.624711
ltoes -56.1583
545
root -0.165473 18.7904 4.42273 15.6396 17.7904 0.951432
lowerback 30.5376 3.79605 7.50664
upperback 7.59946 7.53303 3.85275
thorax -7.64642 3.50439 -2.63085
lowerneck -8.69776 -14.3478 -14.2101
upperneck 18.6527 -20.5577 15.6894
head 10.5918 -9.18366 4.91885
rclavicle 4.45278e-014 2.06736e-014
rhumerus -13.1157 16.8643 -77.8835
rradius 99.9569
rwrist -6.78626
rhand -19.9246 303.177
rfingers 7.12502
rthumb 6.4126 -86.7055
lclavicle 4.45278e-014 2.06736e-014
lhumerus -5.84338 -47.4426 66.8909
lradius 110.151
lwrist 54.3219
lhand -17.8501 0.717513
lfingers 7.12502
lthumb 8.415 30.5299
rfemur -9.24407 -9.98461 12.7201
rtibia 2.38542e-014
rfoot -17.1507 -19.1998
rtoes -3.72329
lfemur -32.0935 -6.67154 -14.1148
ltibia 27.9444
lfoot -11.2377 -0.570352
ltoes -56.1682
546
root -0.17188 18.7942 4.43156 15.4072 18.0433 1.04103
lowerback 30.4976 3.49648 7.35983
upperback 7.41921 7.14321 3.97622
thorax -7.90317 3.30852 -2.28914
lowerneck -8.50422 -14.3031 -14.3025
upperneck 19.2674 -20.5206 15.4186
head 10.7474 -9.18193 4.86397
rclavicle 4.6118e-014 4.13472e-014
rhumerus -16.2403 15.8177 -77.5146
rradius 103
rwrist 3.07786
rhand -22.372 305.93
rfingers 7.12502
rthumb 4.04959 -84.011
lclavicle 4.6118e-014 4.13472e-014
lhumerus -3.18067 -47.7581 63.8674
lradius 110.643
lwrist 54.57
lhand -17.1864 1.2965
lfingers 7.12502
lthumb 9.05543 31.0821
rfemur -8.84739 -10.2143 12.6603
rtibia -7.95139e-016
rfoot -17.2093 -19.1282
rtoes -3.80216
lfemur -31.7537 -7.11855 -14.1092
ltibia 27.8378
lfoot -11.28 -0.444104
ltoes -56.2214
547
root -0.172807 18.8012 4.44971 15.2086 17.914 1.00198
lowerback 30.2669 3.31749 7.11166
upperback 7.26423 6.85163 4.1024
thorax -8.04097 3.16748 -1.90382
lowerneck -8.32468 -14.2097 -14.5036
upperneck 19.9609 -20.4107 15.1655
head 10.9391 -9.15098 4.84518
rclavicle 9.70069e-014 -2.70347e-014
rhumerus -18.7637 15.7997 -75.585
rradius 105.465
rwrist 10.768
rhand -23.4419 308.024
rfingers 7.12502
rthumb 3.01636 -81.9344
lclavicle 9.70069e-014 -2.70347e-014
lhumerus -0.859528 -47.8911 61.1793
lradius 110.891
lwrist 55.3114
lhand -16.5026 2.00291
lfingers 7.12502
lthumb 9.71525 31.7588
rfemur -8.58755 -10.0516 12.6568
rtibia 2.38542e-014
rfoot -17.2328 -19.0949
rtoes -4.19277
lfemur -31.3739 -7.22104 -14.0629
ltibia 27.7183
lfoot -11.4066 -0.207769
ltoes -56.2541
548
root -0.174372 18.8069 4.46487 15.0283 17.6757 0.947602
lowerback 30.0486 3.13081 6.84391
upperback 7.10577 6.54163 4.19647
thorax -8.18275 3.01846 -1.53721
lowerneck -8.10147 -14.0983 -14.7224
upperneck 20.5156 -20.2707 14.9634
head 11.0766 -9.11342 4.85439
rclavicle -7.79236e-014 1.74931e-014
rhumerus -21.1469 15.0154 -73.8186
rradius 107.956
rwrist 17.8608
rhand -23.6883 310.4
rfingers 7.12502
rthumb 2.77842 -79.5615
lclavicle -7.79236e-014 1.74931e-014
lhumerus 1.14092 -47.8936 58.7879
lradius 110.942
lwrist 56.1493
lhand -15.6476 2.75165
lfingers 7.12502
lthumb 10.5401 32.4674
rfemur -8.4002 -9.78256 12.6521
rtibia -2.62396e-014
rfoot -17.2482 -19.0992
rtoes -4.67479
lfemur -31.0249 -7.29966 -13.999
ltibia 27.6008
lfoot -11.5272 0.107
ltoes -56.2856
549
root -0.175344 18.8114 4.47689 14.8846 17.3332 0.920711
lowerback 29.7923 2.93291 6.55367
upperback 6.97971 6.19772 4.23267
thorax -8.26091 2.85796 -1.20642
lowerneck -7.88167 -14.0023 -14.8174
upperneck 20.9379 -20.1505 14.7461
head 11.1533 -9.08382 4.83435
rclavicle -1.11319e-014 -1.43125e-014
rhumerus -22.8367 15.464 -70.9608
rradius 109.461
rwrist 22.9977
rhand -24.2117 311.356
rfingers 7.12502
rthumb 2.2729 -78.6117
lclavicle -1.11319e-014 -1.43125e-014
lhumerus 2.71704 -47.8296 56.7476
lradius 110.93
lwrist 56.5777
lhand -14.6778 3.40971
lfingers 7.12502
lthumb 11.4755 33.0756
rfemur -8.28352 -9.42532 12.5971
rtibia 1.59028e-015
rfoot -17.2848 -19.115
rtoes -4.83888
lfemur -30.7112 -7.382 -13.9573
ltibia 27.5043
lfoot -11.6877 0.481212
ltoes -56.2986
550
root -0.175289 18.8159 4.48587 14.7528 16.9049 0.920425
lowerback 29.5708 2.68285 6.26791
upperback 6.87487 5.78345 4.207
thorax -8.32201 2.66536 -0.923931
lowerneck -7.77519 -13.839 -14.7862
upperneck 21.4312 -19.9223 14.4119
head 11.2307 -8.99985 4.76845
rclavicle 4.6118e-014 -4.6118e-014
rhumerus -24.2456 15.5595 -68.2099
rradius 110.984
rwrist 23.8758
rhand -24.4318 312.717
rfingers 7.12502
rthumb 2.06037 -77.253
lclavicle 4.6118e-014 -4.6118e-014
lhumerus 3.72688 -47.708 55.1844
lradius 110.916
lwrist 56.3531
lhand -13.843 3.96487
lfingers 7.12502
lthumb 12.2805 33.5843
rfemur -8.20064 -8.99415 12.4918
rtibia 7.95139e-015
rfoot -17.2917 -19.1694
rtoes -5.08306
lfemur -30.4059 -7.36268 -13.9711
ltibia 27.4293
lfoot -11.827 0.782493
ltoes -56.2305
551
root -0.175082 18.8182 4.4899 14.6437 16.4001 0.919764
lowerback 29.3879 2.41287 6.0454
upperback 6.75168 5.36121 4.13446
thorax -8.40705 2.46627 -0.728857
lowerneck -7.66139 -13.6111 -14.7844
upperneck 21.9215 -19.605 14.1105
head 11.2995 -8.87697 4.73594
rclavicle -2.06736e-014 3.02153e-014
rhumerus -25.5903 15.8215 -65.6517
rradius 111.886
rwrist 24.9151
rhand -25.4639 313.437
rfingers 7.12502
rthumb 1.06351 -76.5404
lclavicle -2.06736e-014 3.02153e-014
lhumerus 4.48505 -47.5747 53.9959
lradius 110.835
lwrist 55.9488
lhand -13.0237 4.40553
lfingers 7.12502
lthumb 13.0704 33.976
rfemur -8.18262 -8.49147 12.3777
rtibia -1.59028e-015
rfoot -17.2158 -19.2794
rtoes -5.69161
lfemur -30.1432 -7.21386 -14.0157
ltibia 27.3782
lfoot -11.9189 1.00804
ltoes -56.218
552
root -0.175144 18.8178 4.49043 14.5462 15.8211 0.91276
lowerback 29.2005 2.15836 5.8676
upperback 6.65435 4.96836 4.06095
thorax -8.45187 2.28196 -0.569116
lowerneck -7.55868 -13.4062 -14.7536
upperneck 22.2859 -19.3039 13.7991
head 11.3228 -8.76461 4.68868
rclavicle 7.95139e-015 -1.59028e-014
rhumerus -26.7293 16.1222 -63.0638
rradius 112.387
rwrist 25.6709
rhand -26.2449 313.808
rfingers 7.12502
rthumb 0.309254 -76.1711
lclavicle 7.95139e-015 -1.59028e-014
lhumerus 5.0605 -47.393 53.2343
lradius 110.71
lwrist 55.4543
lhand -12.2864 4.82155
lfingers 7.12502
lthumb 13.781 34.3451
rfemur -8.21114 -7.91583 12.2635
rtibia 2.54444e-014
rfoot -17.1045 -19.4018
rtoes -6.28323
lfemur -29.9032 -6.99674 -14.0715
ltibia 27.3529
lfoot -12.0214 1.27358
ltoes -56.2506
553
root -0.175107 18.8174 4.48993 14.4444 15.2066 0.894473
lowerback 29.0342 1.9022 5.74945
upperback 6.60839 4.58955 3.99777
thorax -8.44163 2.1056 -0.436393
lowerneck -7.53832 -13.2088 -14.6113
upperneck 22.6084 -18.9832 13.3661
head 11.3171 -8.64353 4.57748
rclavicle 7.95139e-015 -4.77083e-015
rhumerus -27.5079 16.3628 -60.5889
rradius 112.486
rwrist 25.7163
rhand -26.2917 313.934
rfingers 7.12502
rthumb 0.263973 -76.0457
lclavicle 7.95139e-015 -4.77083e-015
lhumerus 5.34679 -47.2279 52.9874
lradius 110.484
lwrist 54.7123
lhand -12.2895 5.10498
lfingers 7.12502
lthumb 13.778 34.6287
rfemur -8.24569 -7.30329 12.1512
rtibia 1.59028e-015
rfoot -17.0577 -19.4965
rtoes -6.60004
lfemur -29.6727 -6.72524 -14.1278
ltibia 27.3544
lfoot -12.1298 1.51161
ltoes -56.1448
